<svg version="1.1" id="Layer_1" xmlns="http://www.w3.org/2000/svg" xmlns:xlink="http://www.w3.org/1999/xlink" x="0px" y="0px"
	 width="100%" viewBox="0 0 1024 1024" enable-background="new 0 0 1024 1024" xml:space="preserve">
<path fill="#000000" opacity="1.000000" stroke="none" 
	d="
M606.000000,1025.000000 
	C404.000000,1025.000000 202.500000,1025.000000 1.000000,1025.000000 
	C1.000000,683.666687 1.000000,342.333344 1.000000,1.000000 
	C342.333344,1.000000 683.666687,1.000000 1025.000000,1.000000 
	C1025.000000,342.333344 1025.000000,683.666687 1025.000000,1025.000000 
	C885.500000,1025.000000 746.000000,1025.000000 606.000000,1025.000000 
M329.533691,505.999908 
	C326.426697,505.999908 323.319733,505.999908 320.360657,505.999908 
	C320.360657,638.259705 320.360657,769.966736 320.360657,901.599365 
	C340.998596,901.599365 361.274811,901.599365 382.030212,901.599365 
	C382.030212,787.710266 382.030212,673.996033 382.030212,560.250977 
	C493.577026,560.250977 604.643188,560.250977 716.200806,560.250977 
	C716.200806,674.210999 716.200806,787.919250 716.200806,901.597412 
	C739.300476,901.597412 761.907898,901.597412 785.000244,901.597412 
	C785.000244,899.479187 785.000183,897.530090 785.000183,895.581055 
	C785.000061,772.089722 785.000122,648.598450 785.000000,525.107117 
	C785.000000,511.973206 779.060852,506.000397 765.992493,506.000336 
	C620.835999,505.999634 475.679535,505.999939 329.533691,505.999908 
M533.500000,409.000122 
	C470.743042,409.000122 407.986084,409.000122 344.840607,409.000122 
	C344.840607,311.706268 344.840607,214.974625 344.840607,118.284737 
	C336.375854,118.284737 328.304047,118.284737 320.274963,118.284737 
	C320.274963,233.631851 320.274963,348.693909 320.274963,463.999390 
	C322.189545,463.999390 323.831024,463.999451 325.472504,463.999451 
	C468.790192,463.998993 612.107910,463.998444 755.425598,463.997925 
	C759.758484,463.997925 764.102234,464.196320 768.422058,463.958679 
	C779.167542,463.367493 785.158997,455.534943 785.141724,446.932495 
	C784.925476,339.111359 785.000000,231.289642 785.000000,123.468071 
	C785.000000,121.706604 785.000000,119.945137 785.000000,118.298111 
	C761.658569,118.298111 738.918762,118.298111 715.799683,118.298111 
	C715.799683,215.327652 715.799683,312.059509 715.799683,409.000122 
	C655.111511,409.000122 594.805725,409.000122 533.500000,409.000122 
M282.000305,458.500000 
	C282.000305,345.072266 282.000305,231.644516 282.000305,118.295227 
	C262.343048,118.295227 243.270844,118.295227 224.205658,118.295227 
	C224.205658,379.525757 224.205658,640.460938 224.205658,901.577820 
	C243.481400,901.577820 262.550293,901.577820 282.000275,901.577820 
	C282.000275,754.086304 282.000275,606.793152 282.000305,458.500000 
M636.500427,901.757507 
	C648.264160,901.757507 660.027832,901.757507 671.640930,901.757507 
	C671.640930,801.847412 671.640930,702.463074 671.640930,603.356201 
	C588.215698,603.356201 505.149872,603.356201 422.275360,603.356201 
	C422.275360,702.968262 422.275360,802.223694 422.275360,901.490417 
	C439.952789,901.490417 457.352539,901.490417 475.239594,901.490417 
	C475.239594,817.825928 475.239594,734.443726 475.239594,651.364136 
	C522.799316,651.364136 569.868530,651.364136 617.262817,651.364136 
	C617.262817,734.983643 617.262817,818.238281 617.262817,901.757935 
	C623.558594,901.757935 629.529663,901.757935 636.500427,901.757507 
M588.394592,248.499878 
	C588.394592,272.575562 588.394592,296.651276 588.394592,320.711426 
	C528.765137,320.711426 469.534546,320.711426 409.944702,320.711426 
	C409.944702,253.041809 409.944702,185.658585 409.944702,118.224792 
	C400.167572,118.224792 390.752197,118.224792 381.204224,118.224792 
	C381.204224,200.507248 381.204224,282.562805 381.204224,364.641296 
	C467.584167,364.641296 553.757141,364.641296 639.665833,364.641296 
	C639.665833,282.225281 639.665833,200.169800 639.665833,118.306122 
	C622.415588,118.306122 605.503723,118.306122 588.397156,118.306122 
	C588.397156,161.575745 588.397156,204.537811 588.394592,248.499878 
M483.715607,153.500153 
	C483.715607,141.740280 483.715607,129.980423 483.715607,118.355728 
	C470.171570,118.355728 457.119415,118.355728 444.320312,118.355728 
	C444.320312,175.091904 444.320312,231.468735 444.320312,287.699402 
	C473.704193,287.699402 502.763123,287.699402 531.710938,287.699402 
	C531.710938,273.330750 531.710938,259.264191 531.710938,244.819397 
	C515.504272,244.819397 499.588287,244.819397 483.714630,244.819397 
	C483.714630,214.457077 483.714630,184.478622 483.715607,153.500153 
M544.999878,786.500000 
	C544.999878,752.742981 544.999878,718.985962 544.999878,685.281921 
	C532.698730,685.281921 520.961182,685.281921 509.384338,685.281921 
	C509.384338,757.594299 509.384338,829.623840 509.384338,901.560059 
	C521.376221,901.560059 532.982239,901.560059 544.999878,901.560059 
	C544.999878,863.398499 544.999878,825.449219 544.999878,786.500000 
z"/>
<path fill="#FFFFFF" opacity="1.000000" stroke="none" 
	d="
M330.028381,505.999939 
	C475.679535,505.999939 620.835999,505.999634 765.992493,506.000336 
	C779.060852,506.000397 785.000000,511.973206 785.000000,525.107117 
	C785.000122,648.598450 785.000061,772.089722 785.000183,895.581055 
	C785.000183,897.530090 785.000244,899.479187 785.000244,901.597412 
	C761.907898,901.597412 739.300476,901.597412 716.200806,901.597412 
	C716.200806,787.919250 716.200806,674.210999 716.200806,560.250977 
	C604.643188,560.250977 493.577026,560.250977 382.030212,560.250977 
	C382.030212,673.996033 382.030212,787.710266 382.030212,901.599365 
	C361.274811,901.599365 340.998596,901.599365 320.360657,901.599365 
	C320.360657,769.966736 320.360657,638.259705 320.360657,505.999908 
	C323.319733,505.999908 326.426697,505.999908 330.028381,505.999939 
z"/>
<path fill="#FFFFFF" opacity="1.000000" stroke="none" 
	d="
M534.000000,409.000122 
	C594.805725,409.000122 655.111511,409.000122 715.799683,409.000122 
	C715.799683,312.059509 715.799683,215.327652 715.799683,118.298111 
	C738.918762,118.298111 761.658569,118.298111 785.000000,118.298111 
	C785.000000,119.945137 785.000000,121.706604 785.000000,123.468071 
	C785.000000,231.289642 784.925476,339.111359 785.141724,446.932495 
	C785.158997,455.534943 779.167542,463.367493 768.422058,463.958679 
	C764.102234,464.196320 759.758484,463.997925 755.425598,463.997925 
	C612.107910,463.998444 468.790192,463.998993 325.472504,463.999451 
	C323.831024,463.999451 322.189545,463.999390 320.274963,463.999390 
	C320.274963,348.693909 320.274963,233.631851 320.274963,118.284737 
	C328.304047,118.284737 336.375854,118.284737 344.840607,118.284737 
	C344.840607,214.974625 344.840607,311.706268 344.840607,409.000122 
	C407.986084,409.000122 470.743042,409.000122 534.000000,409.000122 
z"/>
<path fill="#FFFFFF" opacity="1.000000" stroke="none" 
	d="
M282.000305,459.000000 
	C282.000275,606.793152 282.000275,754.086304 282.000275,901.577820 
	C262.550293,901.577820 243.481400,901.577820 224.205658,901.577820 
	C224.205658,640.460938 224.205658,379.525757 224.205658,118.295227 
	C243.270844,118.295227 262.343048,118.295227 282.000305,118.295227 
	C282.000305,231.644516 282.000305,345.072266 282.000305,459.000000 
z"/>
<path fill="#FFFFFF" opacity="1.000000" stroke="none" 
	d="
M636.000610,901.757690 
	C629.529663,901.757935 623.558594,901.757935 617.262817,901.757935 
	C617.262817,818.238281 617.262817,734.983643 617.262817,651.364136 
	C569.868530,651.364136 522.799316,651.364136 475.239594,651.364136 
	C475.239594,734.443726 475.239594,817.825928 475.239594,901.490417 
	C457.352539,901.490417 439.952789,901.490417 422.275360,901.490417 
	C422.275360,802.223694 422.275360,702.968262 422.275360,603.356201 
	C505.149872,603.356201 588.215698,603.356201 671.640930,603.356201 
	C671.640930,702.463074 671.640930,801.847412 671.640930,901.757507 
	C660.027832,901.757507 648.264160,901.757507 636.000610,901.757690 
z"/>
<path fill="#FEFEFE" opacity="1.000000" stroke="none" 
	d="
M588.395874,247.999878 
	C588.397156,204.537811 588.397156,161.575745 588.397156,118.306122 
	C605.503723,118.306122 622.415588,118.306122 639.665833,118.306122 
	C639.665833,200.169800 639.665833,282.225281 639.665833,364.641296 
	C553.757141,364.641296 467.584167,364.641296 381.204224,364.641296 
	C381.204224,282.562805 381.204224,200.507248 381.204224,118.224792 
	C390.752197,118.224792 400.167572,118.224792 409.944702,118.224792 
	C409.944702,185.658585 409.944702,253.041809 409.944702,320.711426 
	C469.534546,320.711426 528.765137,320.711426 588.394592,320.711426 
	C588.394592,296.651276 588.394592,272.575562 588.395874,247.999878 
z"/>
<path fill="#FEFEFE" opacity="1.000000" stroke="none" 
	d="
M483.715118,154.000153 
	C483.714630,184.478622 483.714630,214.457077 483.714630,244.819397 
	C499.588287,244.819397 515.504272,244.819397 531.710938,244.819397 
	C531.710938,259.264191 531.710938,273.330750 531.710938,287.699402 
	C502.763123,287.699402 473.704193,287.699402 444.320312,287.699402 
	C444.320312,231.468735 444.320312,175.091904 444.320312,118.355728 
	C457.119415,118.355728 470.171570,118.355728 483.715607,118.355728 
	C483.715607,129.980423 483.715607,141.740280 483.715118,154.000153 
z"/>
<path fill="#FFFFFF" opacity="1.000000" stroke="none" 
	d="
M544.999878,787.000000 
	C544.999878,825.449219 544.999878,863.398499 544.999878,901.560059 
	C532.982239,901.560059 521.376221,901.560059 509.384338,901.560059 
	C509.384338,829.623840 509.384338,757.594299 509.384338,685.281921 
	C520.961182,685.281921 532.698730,685.281921 544.999878,685.281921 
	C544.999878,718.985962 544.999878,752.742981 544.999878,787.000000 
z"/>
</svg>